<?xml version="1.0" encoding="UTF-8" standalone="no"?>
<svg
   height="16"
   viewBox="0 0 16 16"
   width="16"
   version="1.1"
   id="svg4"
   sodipodi:docname="icon_web_blog_post.svg"
   inkscape:version="1.2.1 (9c6d41e410, 2022-07-14)"
   xmlns:inkscape="http://www.inkscape.org/namespaces/inkscape"
   xmlns:sodipodi="http://sodipodi.sourceforge.net/DTD/sodipodi-0.dtd"
   xmlns="http://www.w3.org/2000/svg"
   xmlns:svg="http://www.w3.org/2000/svg">
  <defs
     id="defs8" />
  <sodipodi:namedview
     id="namedview6"
     pagecolor="#ffffff"
     bordercolor="#666666"
     borderopacity="1.0"
     inkscape:showpageshadow="2"
     inkscape:pageopacity="0.0"
     inkscape:pagecheckerboard="0"
     inkscape:deskcolor="#d1d1d1"
     showgrid="false"
     inkscape:zoom="27.15625"
     inkscape:cx="-4.8423475"
     inkscape:cy="8.3222094"
     inkscape:window-width="1920"
     inkscape:window-height="1023"
     inkscape:window-x="1920"
     inkscape:window-y="0"
     inkscape:window-maximized="1"
     inkscape:current-layer="svg4" />
  <text
     xml:space="preserve"
     style="font-style:normal;font-weight:normal;font-size:40px;line-height:1.25;font-family:sans-serif;fill:#792929;fill-opacity:1;stroke:none"
     x="11.779497"
     y="9.644598"
     id="text504"><tspan
       sodipodi:role="line"
       id="tspan502"
       x="11.779497"
       y="9.644598" /></text>
  <g
     aria-label="V"
     id="text516"
     style="font-size:16px;line-height:1.25;fill:#792929">
    <path
       d="M 11.301557,2.4087246 7.4135571,13.832725 h -2.64 L 0.90155715,2.4087246 H 3.3495571 l 2.144,6.8 q 0.064,0.176 0.176,0.656 0.128,0.4640004 0.256,0.9920004 0.128,0.512 0.176,0.864 0.048,-0.352 0.16,-0.864 0.128,-0.528 0.256,-0.9920004 0.128,-0.48 0.176,-0.656 l 2.16,-6.8 z"
       style="font-weight:bold;-inkscape-font-specification:'sans-serif Bold'"
       id="path292" />
  </g>
  <g
     aria-label="V"
     id="text520"
     style="font-size:16px;line-height:1.25;fill:#793d3d">
    <path
       d="m 15.108807,2.45382 -3.888,11.424 h -2.64 l -3.872,-11.424 h 2.448 l 2.144,6.8 q 0.064,0.176 0.176,0.656 0.128,0.464 0.256,0.992 0.128,0.512 0.176,0.864 0.048,-0.352 0.16,-0.864 0.128,-0.528 0.256,-0.992 0.128,-0.48 0.176,-0.656 l 2.16,-6.8 z"
       style="font-weight:bold;-inkscape-font-specification:'sans-serif Bold'"
       id="path295" />
  </g>
  <path
     d="M 8.1967175,5.3547303 V 6.1189335 H 4.3757012 V 6.8831368 H 5.9041077 V 14.52517 h 0.7642033 3.821016 v 0.764202 h 4.585219 v -2.292609 h -4.585219 v 0.764203 H 6.668311 v -3.056813 h 3.821016 v 0.764204 h 4.585219 V 9.1757465 H 10.489327 V 9.93995 H 6.668311 V 6.8831368 H 8.1967175 V 7.64734 H 12.781936 V 5.3547303 Z"
     fill="#e0e0e0"
     id="path135"
     style="stroke-width:0.164;fill:#9e3eed;fill-opacity:1;stroke:#000000;stroke-opacity:1;stroke-dasharray:none" />
</svg>
