<?xml version="1.0" encoding="UTF-8" standalone="no"?>
<svg
   height="16"
   viewBox="0 0 16 16"
   width="16"
   version="1.1"
   id="svg4"
   sodipodi:docname="icon_web_blog.svg"
   inkscape:version="1.2.1 (9c6d41e410, 2022-07-14)"
   xmlns:inkscape="http://www.inkscape.org/namespaces/inkscape"
   xmlns:sodipodi="http://sodipodi.sourceforge.net/DTD/sodipodi-0.dtd"
   xmlns="http://www.w3.org/2000/svg"
   xmlns:svg="http://www.w3.org/2000/svg">
  <defs
     id="defs8" />
  <sodipodi:namedview
     id="namedview6"
     pagecolor="#ffffff"
     bordercolor="#666666"
     borderopacity="1.0"
     inkscape:showpageshadow="2"
     inkscape:pageopacity="0.0"
     inkscape:pagecheckerboard="0"
     inkscape:deskcolor="#d1d1d1"
     showgrid="false"
     inkscape:zoom="27.15625"
     inkscape:cx="-0.64441887"
     inkscape:cy="8.1749137"
     inkscape:window-width="1920"
     inkscape:window-height="1023"
     inkscape:window-x="3840"
     inkscape:window-y="0"
     inkscape:window-maximized="1"
     inkscape:current-layer="svg4" />
  <text
     xml:space="preserve"
     style="font-style:normal;font-weight:normal;font-size:40px;line-height:1.25;font-family:sans-serif;fill:#792929;fill-opacity:1;stroke:none"
     x="11.779497"
     y="9.644598"
     id="text504"><tspan
       sodipodi:role="line"
       id="tspan502"
       x="11.779497"
       y="9.644598" /></text>
  <g
     aria-label="V"
     id="text516"
     style="font-size:16px;line-height:1.25;fill:#792929">
    <path
       d="M 11.301557,2.4087246 7.4135571,13.832725 h -2.64 L 0.90155715,2.4087246 H 3.3495571 l 2.144,6.8 q 0.064,0.176 0.176,0.656 0.128,0.4640004 0.256,0.9920004 0.128,0.512 0.176,0.864 0.048,-0.352 0.16,-0.864 0.128,-0.528 0.256,-0.9920004 0.128,-0.48 0.176,-0.656 l 2.16,-6.8 z"
       style="font-weight:bold;-inkscape-font-specification:'sans-serif Bold'"
       id="path292" />
  </g>
  <g
     aria-label="V"
     id="text520"
     style="font-size:16px;line-height:1.25;fill:#793d3d">
    <path
       d="m 15.108807,2.45382 -3.888,11.424 h -2.64 l -3.872,-11.424 h 2.448 l 2.144,6.8 q 0.064,0.176 0.176,0.656 0.128,0.464 0.256,0.992 0.128,0.512 0.176,0.864 0.048,-0.352 0.16,-0.864 0.128,-0.528 0.256,-0.992 0.128,-0.48 0.176,-0.656 l 2.16,-6.8 z"
       style="font-weight:bold;-inkscape-font-specification:'sans-serif Bold'"
       id="path295" />
  </g>
  <path
     d="M 5.0978553,5.5089532 V 6.8952517 H 6.484154 V 5.5089532 Z m 2.079448,0 V 6.8952517 H 8.5636018 V 5.5089532 Z m 2.772597,0 V 6.8952517 H 14.108797 V 5.5089532 Z M 5.0978553,7.5884011 V 8.9746999 H 6.484154 V 7.5884011 Z m 2.079448,0 V 8.9746999 H 8.5636018 V 7.5884011 Z m 2.772597,0 V 9.6678499 H 13.415646 V 13.826745 H 9.9499003 v 1.386299 h 3.4657457 a 1.3862987,1.3862987 0 0 0 1.386299,-1.386299 V 7.5884011 Z M 10.64305,8.2815504 h 0.693149 V 8.9746999 H 10.64305 Z m 2.079448,0 h 0.693148 V 8.9746999 H 12.722498 Z M 5.0978553,9.6678499 V 11.054149 H 6.484154 V 9.6678499 Z m 2.079448,0 V 11.054149 H 8.5636018 V 9.6678499 Z m 2.772597,0.6931481 v 0.693151 h 1.3862987 v -0.693151 z m -4.852045,1.386299 v 1.386299 H 6.484154 v -1.386299 z m 2.079448,0 v 1.386299 h 1.3862985 v -1.386299 z m -2.079448,2.079448 v 1.386299 H 6.484154 v -1.386299 z m 2.079448,0 v 1.386299 h 1.3862985 v -1.386299 z"
     fill="#e0e0e0"
     id="path134"
     style="fill:#9e3eed;fill-opacity:1;stroke-width:0.693149" />
</svg>
